<?xml version="1.0" standalone="no"?>
<!DOCTYPE svg PUBLIC "-//W3C//DTD SVG 20010904//EN"
 "http://www.w3.org/TR/2001/REC-SVG-20010904/DTD/svg10.dtd">
<svg version="1.0" xmlns="http://www.w3.org/2000/svg"
 width="720.000000pt" height="720.000000pt" viewBox="0 0 720.000000 720.000000"
 preserveAspectRatio="xMidYMid meet">
<metadata>
Created by potrace 1.16, written by Peter Selinger 2001-2019
</metadata>
<g transform="translate(0.000000,720.000000) scale(0.100000,-0.100000)"
fill="#000000" stroke="none">
<path d="M3415 6610 c-33 -4 -97 -8 -142 -9 -45 -1 -84 -5 -88 -11 -3 -5 -13
-6 -21 -3 -8 3 -25 1 -37 -5 -12 -6 -77 -25 -145 -42 -153 -38 -311 -92 -469
-160 -114 -49 -200 -95 -130 -70 15 5 41 17 57 25 42 22 80 36 80 29 0 -3 -34
-21 -75 -39 -41 -19 -75 -39 -75 -45 0 -5 -3 -9 -7 -9 -32 5 -47 -3 -238 -131
-91 -60 -100 -66 -91 -52 3 6 34 29 69 51 34 23 58 41 53 41 -23 0 -201 -125
-201 -141 0 -4 -7 -14 -15 -21 -12 -11 -12 -11 -1 5 7 9 10 17 5 17 -8 0 -37
-22 -201 -153 -29 -23 -48 -44 -41 -46 6 -2 18 5 27 16 14 17 53 49 112 92 10
7 -73 -79 -185 -190 -112 -112 -211 -220 -221 -239 -10 -19 -36 -55 -59 -80
-109 -118 -363 -564 -382 -669 -4 -20 -12 -43 -19 -51 -12 -14 -51 -139 -82
-265 -8 -33 -24 -86 -35 -119 -11 -32 -22 -84 -24 -115 -3 -31 -11 -76 -19
-101 -8 -25 -14 -61 -13 -80 2 -52 -14 -220 -22 -225 -8 -5 -3 -532 5 -545 3
-5 8 -38 11 -72 7 -86 43 -271 65 -337 11 -30 19 -62 19 -73 0 -10 4 -26 9
-36 15 -27 51 -131 51 -148 0 -21 106 -269 147 -344 71 -129 199 -334 261
-416 34 -46 62 -86 62 -89 0 -2 39 -45 87 -95 48 -50 93 -100 101 -111 13 -19
13 -20 -7 -7 -11 7 -21 16 -21 20 0 5 -4 8 -10 8 -5 0 -7 -8 -3 -17 6 -17 5
-17 -14 -1 -11 10 -24 18 -30 18 -16 0 -73 62 -67 72 3 4 -1 8 -9 8 -8 0 -22
10 -31 22 -9 13 -14 17 -10 9 5 -9 3 -12 -4 -7 -6 4 -9 13 -6 20 3 7 -2 19
-11 26 -8 7 -15 9 -15 5 0 -3 -11 7 -25 23 -14 17 -25 36 -25 44 0 7 -21 35
-47 61 -25 26 -42 47 -38 47 5 0 -5 15 -22 33 -32 33 -114 161 -112 175 3 21
-2 32 -13 26 -7 -5 -9 -2 -6 8 4 8 0 15 -8 15 -19 0 -26 -25 -10 -34 15 -9 59
-83 53 -89 -2 -2 -9 6 -16 19 -7 13 -21 28 -31 35 -17 10 -18 9 -12 -6 23 -56
213 -326 271 -382 36 -36 90 -92 120 -125 30 -33 46 -46 36 -30 l-19 30 32
-30 c18 -16 30 -35 28 -42 -3 -7 0 -13 7 -13 7 -1 21 -12 32 -26 11 -14 28
-34 39 -44 10 -10 16 -23 12 -28 -3 -5 1 -18 9 -28 8 -10 15 -23 15 -28 0 -13
-101 91 -114 116 -12 24 -36 36 -36 18 0 -15 211 -224 278 -275 29 -21 52 -42
52 -46 0 -3 50 -48 110 -99 61 -52 110 -95 110 -97 0 -6 -22 7 -43 25 -9 8
-20 13 -23 10 -5 -6 83 -72 163 -122 57 -35 55 -19 -2 24 -25 18 -43 36 -40
38 9 9 120 -64 165 -108 25 -25 38 -36 30 -26 -15 19 -14 19 17 2 20 -10 33
-12 33 -6 0 7 7 7 23 0 20 -10 21 -10 4 4 -11 8 -25 12 -32 10 -7 -3 -16 0
-21 7 -5 8 -3 10 6 4 9 -6 11 -4 6 4 -5 7 -14 10 -21 7 -8 -3 -19 1 -25 9 -8
10 -8 14 2 18 7 2 11 6 8 9 -5 5 -133 92 -227 155 -103 68 -183 128 -183 136
0 5 15 -2 33 -15 84 -64 135 -96 162 -102 l30 -7 -40 37 c-43 39 -31 33 80
-38 39 -25 128 -74 198 -109 70 -35 140 -75 155 -90 29 -28 103 -69 124 -69 8
1 5 7 -6 15 -29 22 -17 18 53 -15 34 -17 66 -28 71 -25 9 6 100 -18 195 -50
22 -7 71 -21 108 -30 49 -13 65 -20 55 -27 -9 -7 -4 -8 15 -4 16 4 42 0 60 -8
18 -8 41 -16 52 -19 11 -3 29 -8 39 -13 13 -5 17 -4 13 4 -4 6 -31 18 -60 27
-76 25 -84 39 -17 31 38 -5 50 -3 40 4 -20 13 -8 13 85 -5 44 -8 97 -18 119
-21 22 -3 35 -9 30 -14 -5 -5 -31 -4 -58 1 -27 5 -51 7 -54 5 -2 -3 12 -8 32
-11 48 -10 55 -24 14 -32 -32 -6 -33 -7 -7 -13 49 -14 165 -22 149 -11 -8 6
-37 11 -65 12 -27 1 -40 4 -28 6 15 3 20 9 16 19 -5 13 5 15 66 11 77 -6 97 7
29 18 -66 11 -82 26 -20 19 42 -5 51 -4 47 7 -3 8 -18 20 -33 26 -34 15 -115
33 -121 27 -2 -2 1 -4 7 -4 7 0 12 -4 12 -9 0 -6 -12 -6 -31 -1 -17 5 -45 6
-61 3 -24 -5 -29 -3 -23 7 6 9 2 10 -15 5 -15 -5 -25 -2 -31 6 -4 7 -11 10
-14 7 -14 -14 7 -27 51 -34 53 -8 136 -32 114 -33 -8 -1 -85 13 -170 31 -151
32 -154 33 -110 41 25 5 55 11 68 13 13 3 20 9 16 15 -8 13 22 9 201 -27 121
-24 195 -30 195 -16 0 4 -24 15 -52 24 -46 14 -49 17 -23 18 l30 2 -30 9 c-16
5 -75 19 -130 31 -55 11 -104 25 -109 29 -17 16 73 10 112 -7 57 -25 133 -44
176 -44 37 0 39 1 20 15 -10 8 -36 18 -56 21 -21 4 -43 14 -50 22 -11 14 -10
15 7 8 20 -7 117 -19 100 -12 -5 2 -27 7 -47 11 -21 3 -38 10 -38 16 0 5 11 7
26 3 19 -5 25 -4 20 5 -4 6 -15 11 -24 11 -14 0 -15 2 -3 9 12 8 8 11 -15 16
-66 15 -70 19 -24 25 l45 5 -26 26 c-18 19 -41 29 -75 33 -28 4 -56 11 -64 16
-25 15 14 23 57 11 46 -13 103 -14 103 -2 0 4 -19 11 -43 13 -51 6 -155 53
-135 62 7 3 0 4 -15 1 -16 -3 -26 -2 -23 3 3 5 -5 7 -17 5 -12 -2 -33 6 -47
17 -21 17 -22 19 -5 14 20 -6 20 -5 1 10 -11 9 -23 16 -28 16 -4 0 -8 5 -8 11
0 7 7 8 18 4 9 -3 64 -16 122 -27 58 -11 123 -24 145 -29 22 -6 155 -12 295
-16 271 -6 414 5 613 47 51 11 124 26 162 34 39 8 91 17 116 20 25 3 97 23
160 45 63 22 115 38 117 36 3 -2 -43 -21 -165 -66 -152 -57 -167 -79 -26 -38
53 16 98 27 101 25 2 -3 -15 -10 -37 -17 -23 -7 -39 -14 -37 -17 5 -4 108 29
206 68 30 12 95 41 143 66 49 24 87 39 85 32 -6 -17 -83 -59 -178 -98 -121
-50 -150 -63 -147 -66 1 -2 31 6 66 16 35 11 68 17 73 13 6 -3 8 -1 5 4 -8 12
20 26 34 18 10 -7 145 55 174 79 11 9 -7 2 -39 -16 -33 -17 -56 -27 -52 -20 7
12 127 82 140 82 4 0 4 -5 0 -12 -4 -7 -3 -8 5 -4 6 4 9 11 6 16 -5 8 102 88
147 110 31 15 -22 -32 -74 -66 -21 -13 -38 -27 -38 -30 0 -17 187 123 294 220
125 114 323 355 415 505 111 183 188 358 283 645 99 298 133 493 145 833 7
194 23 242 23 68 0 -241 -51 -579 -127 -850 -42 -148 -136 -414 -161 -453 -8
-12 -12 -25 -9 -28 7 -7 65 108 96 191 13 33 27 69 32 80 70 157 137 440 169
720 18 148 20 431 5 584 -9 95 -10 140 -3 157 8 18 7 26 -5 38 -14 15 -16 14
-19 -2 -2 -9 -10 13 -16 49 -12 65 -9 97 11 111 6 4 2 38 -12 90 -12 45 -27
101 -32 123 -6 22 -16 49 -23 60 -7 11 -21 45 -31 75 -22 68 -77 204 -116 287
-16 34 -29 64 -29 68 0 4 -9 20 -20 35 -11 16 -20 32 -19 37 3 20 -3 32 -36
66 -33 34 -48 66 -23 51 14 -9 11 -5 -59 104 -30 45 -56 82 -58 82 -2 0 1 -15
7 -32 17 -52 80 -148 91 -141 6 3 7 1 3 -5 -4 -7 21 -65 56 -129 87 -161 205
-451 194 -478 -3 -9 -2 -14 2 -11 5 3 19 -31 31 -74 14 -49 27 -77 34 -73 7 4
8 0 4 -11 -4 -10 -7 -22 -7 -27 0 -5 -8 -1 -18 9 -22 22 -66 166 -59 193 3 10
1 19 -4 19 -4 0 -5 7 -2 17 4 10 2 14 -4 10 -7 -5 -9 1 -5 15 3 14 1 19 -6 14
-8 -4 -10 -2 -6 7 3 8 0 18 -5 22 -15 9 -42 75 -35 86 3 5 1 17 -5 26 -18 33
-23 -10 -6 -51 9 -21 14 -40 12 -43 -3 -2 -19 31 -37 74 -112 270 -264 525
-407 683 -27 30 -74 87 -105 125 -62 78 -242 250 -360 344 -43 34 -78 64 -78
67 0 8 42 -19 91 -57 22 -17 40 -25 48 -20 10 6 8 10 -6 16 -10 5 -20 9 -23 9
-15 3 -30 19 -24 27 3 5 19 0 37 -12 20 -13 13 -3 -18 25 -43 39 -97 76 -113
76 -2 0 6 -10 19 -21 l24 -21 -25 15 c-14 8 -26 20 -26 26 -3 24 -5 26 -13 12
-10 -16 -36 -4 -66 30 l-20 23 40 -24 c60 -35 29 -8 -44 39 -35 23 -75 41 -89
41 -14 0 -35 12 -51 29 -15 16 -64 48 -109 70 -45 23 -85 48 -89 55 -11 19
-58 33 -49 15 4 -8 1 -6 -6 3 -8 9 -39 26 -69 38 -30 11 -62 25 -72 30 -52 30
-363 118 -477 135 -25 3 -54 10 -65 14 -39 16 -131 32 -180 31 -27 0 -84 4
-125 10 -75 11 -370 14 -465 5 -44 -4 -46 -4 -15 4 49 13 336 28 450 24 52 -2
153 -10 224 -18 71 -9 131 -13 133 -11 3 2 -22 8 -54 11 -32 4 -66 11 -75 16
-20 11 -145 18 -338 20 -174 2 -221 12 -90 20 l95 5 -120 1 c-66 0 -147 -3
-180 -7z m905 -615 c115 -29 176 -46 195 -54 11 -5 43 -17 72 -26 55 -17 337
-158 364 -181 15 -14 49 -20 36 -7 -4 3 -2 12 4 19 7 9 -5 21 -50 48 -32 20
-66 34 -74 30 -8 -3 -18 0 -23 7 -4 7 -3 10 4 5 5 -3 12 -1 14 6 4 11 25 1
169 -81 31 -17 64 -40 74 -51 10 -11 22 -20 27 -20 17 0 142 -93 208 -155 14
-12 47 -39 73 -59 38 -29 52 -35 62 -26 10 9 16 7 24 -9 7 -13 17 -18 27 -14
10 4 14 1 12 -8 -1 -8 6 -25 17 -38 83 -100 81 -98 52 -72 -15 14 -27 20 -27
15 0 -13 56 -67 65 -62 3 1 17 -7 30 -20 17 -16 26 -19 31 -11 4 7 3 9 -2 6
-6 -3 -11 3 -11 14 -2 27 4 24 22 -10 9 -18 11 -31 5 -33 -11 -3 63 -111 99
-142 11 -11 21 -26 21 -34 0 -8 10 -30 21 -49 12 -19 19 -36 16 -39 -2 -3 -15
11 -27 30 -12 20 -24 36 -26 36 -3 0 -2 -6 3 -12 4 -7 23 -38 41 -68 31 -49
34 -51 16 -6 -8 20 26 14 37 -7 5 -8 11 -28 13 -44 1 -15 26 -74 55 -131 53
-105 72 -153 141 -347 64 -183 91 -320 116 -603 8 -96 18 -84 17 21 -1 76 0
79 9 37 5 -26 7 -143 4 -280 -5 -235 -23 -380 -60 -500 -8 -25 -22 -79 -31
-120 -20 -90 -65 -233 -72 -227 -2 3 7 45 21 93 27 97 41 162 34 154 -3 -3
-21 -52 -41 -110 -62 -179 -86 -241 -152 -378 -129 -268 -262 -462 -434 -631
-262 -257 -502 -384 -976 -516 -94 -26 -181 -54 -195 -61 l-25 -14 30 6 c17 3
44 10 60 16 40 13 169 47 223 59 24 5 49 12 55 15 8 5 9 4 2 -4 -5 -6 -26 -15
-45 -20 -20 -5 -34 -15 -32 -22 2 -8 -4 -11 -18 -7 -11 3 -20 1 -20 -4 0 -5
-7 -9 -16 -9 -10 0 -69 -15 -133 -34 -145 -43 -242 -62 -401 -80 l-125 -15
137 2 c75 1 132 -1 126 -4 -6 -4 -6 -9 -1 -12 10 -6 242 24 322 42 40 9 110
23 191 38 61 11 -11 -16 -95 -36 -49 -12 -103 -25 -120 -31 -16 -5 -115 -21
-219 -35 -321 -43 -677 -28 -969 40 -7 1 -28 6 -47 10 -29 7 -31 9 -15 16 28
11 47 11 41 0 -4 -5 3 -7 14 -4 11 3 20 7 20 9 0 2 -26 10 -57 19 -32 9 -76
24 -98 35 -52 25 -318 121 -323 116 -2 -2 13 -9 33 -16 20 -7 34 -14 31 -17
-7 -8 -106 27 -106 37 0 5 8 7 18 4 9 -3 7 1 -6 8 -12 8 -19 17 -15 22 4 4 8
15 8 24 0 17 5 18 40 7 16 -4 15 -3 -2 6 -37 19 -27 36 16 29 12 -1 13 1 2 13
-19 24 23 57 72 57 l40 0 -7 39 c-4 27 -2 41 7 45 8 3 6 10 -8 21 -19 17 -19
17 18 11 20 -4 53 -4 73 0 27 5 34 10 29 23 -4 9 -9 27 -12 41 -2 13 -5 25 -6
25 -25 9 -90 62 -101 84 -9 16 -36 47 -62 70 l-47 41 37 0 c43 0 45 11 11 56
-28 37 -31 45 -12 41 7 -1 11 6 9 18 -3 16 -1 18 9 8 7 -7 18 -13 23 -13 6 0
-2 12 -19 26 -21 18 -24 24 -11 19 19 -6 19 -5 3 13 -9 10 -17 28 -17 40 0 15
-36 51 -126 124 -69 57 -138 110 -154 118 -16 8 -33 25 -39 38 -6 12 -17 22
-25 22 -7 0 -19 7 -26 15 -7 9 -15 13 -18 10 -3 -3 -12 1 -20 8 -13 10 -14 9
-8 -2 6 -9 5 -12 -5 -9 -8 3 -13 12 -13 21 1 9 -2 14 -7 11 -5 -2 -22 10 -39
28 -25 27 -28 29 -17 8 31 -62 88 -140 102 -140 8 0 15 -7 15 -15 0 -22 -9
-19 -68 24 -45 32 -138 133 -220 237 -20 26 -21 26 -11 4 7 -14 25 -42 41 -62
16 -21 26 -38 21 -38 -10 0 -61 67 -119 155 -64 98 -115 191 -108 198 2 2 -2
10 -11 17 -8 7 -15 21 -15 31 0 10 -4 21 -10 24 -15 10 -12 -6 15 -73 33 -81
31 -88 -6 -24 -34 57 -69 147 -69 174 0 10 -4 18 -10 18 -5 0 -9 3 -9 8 5 32
-16 46 -24 15 -2 -10 -7 6 -12 35 -7 49 -24 72 -26 35 -2 -55 -62 190 -78 317
-14 104 -15 182 -7 280 5 53 4 71 -3 60 -8 -12 -11 -7 -11 21 0 25 5 39 16 43
13 5 15 15 10 50 -7 48 5 138 35 255 20 79 20 104 0 49 -7 -18 -22 -58 -34
-88 -15 -38 -21 -74 -20 -118 1 -34 -2 -60 -7 -57 -4 3 -7 -3 -6 -12 2 -10 0
-20 -4 -23 -4 -3 -10 -43 -13 -90 -3 -50 -2 -73 3 -55 l8 30 1 -35 c1 -27 4
-31 11 -20 8 12 10 11 10 -7 0 -21 -10 -28 -32 -24 -5 0 -8 -6 -8 -15 0 -8 4
-12 10 -9 6 4 10 -10 10 -34 0 -44 -16 -56 -23 -18 -2 12 -3 -14 -1 -58 2 -44
3 -92 3 -107 1 -18 6 -28 16 -28 8 0 15 -7 15 -15 0 -8 -5 -15 -11 -15 -8 0
-9 -22 -4 -72 7 -67 6 -72 -9 -59 -16 13 -17 12 -11 -15 4 -23 3 -25 -4 -9
-20 43 -41 135 -57 249 -14 103 -15 137 -5 249 7 71 21 173 33 226 11 53 22
107 23 121 5 47 38 150 47 150 6 0 8 9 5 20 -3 11 -1 20 4 20 4 0 5 7 2 17 -5
12 -3 14 7 8 10 -6 12 -4 7 9 -4 11 -3 15 4 11 5 -4 8 -21 5 -38 -3 -18 -3
-25 0 -17 4 8 12 29 19 45 7 17 16 44 20 60 6 28 5 29 -8 10 -9 -11 -13 -24
-10 -29 4 -5 1 -6 -5 -2 -7 4 -12 2 -12 -5 0 -7 -2 -10 -5 -7 -9 9 46 133 66
148 11 9 17 22 14 30 -3 8 5 31 17 50 27 43 67 122 68 133 0 5 -5 5 -11 1 -16
-9 16 47 46 81 30 34 23 15 -12 -31 -26 -35 -30 -53 -9 -35 20 16 54 83 49 96
-4 14 96 127 107 120 4 -3 6 4 3 15 -3 12 0 20 7 20 18 0 90 60 90 74 0 7 11
25 25 40 14 15 25 32 25 38 0 6 9 8 20 5 11 -3 18 -2 15 2 -6 10 38 52 57 55
8 1 28 12 44 25 16 12 56 42 89 65 124 88 413 246 329 181 -11 -9 11 -4 51 11
39 15 83 29 98 32 22 3 26 8 22 23 -6 18 8 25 38 20 4 0 7 3 7 8 0 5 28 16 63
25 34 8 88 22 121 31 69 19 86 13 27 -11 -23 -9 -40 -18 -38 -20 2 -2 57 7
123 21 65 14 129 25 141 25 12 0 23 6 26 13 3 9 70 12 285 13 155 1 282 -3
282 -7 0 -5 22 -9 48 -9 27 0 52 -3 56 -7 3 -4 12 -8 19 -9 7 -1 30 -5 52 -8
85 -12 -57 25 -170 46 -205 36 -219 40 -204 49 9 5 -36 9 -114 9 -91 0 -126 3
-121 11 3 6 19 9 35 5 15 -3 31 -1 35 5 6 11 -153 7 -203 -5 -11 -2 -43 -8
-70 -11 -153 -23 -451 -97 -568 -142 -8 -3 -15 -1 -15 5 0 14 249 95 390 126
140 31 351 56 508 61 64 1 122 4 127 5 6 1 54 0 108 -4 68 -5 97 -4 92 4 -3 5
0 10 7 10 7 0 24 3 38 6 22 4 22 3 -5 -11 -16 -8 -23 -13 -13 -11 9 3 42 -1
74 -9 32 -7 72 -11 91 -8 19 3 33 1 33 -4 0 -17 58 -36 120 -38 32 -2 68 -6
81 -10 19 -5 21 -4 9 5 -12 9 -10 10 9 5 18 -5 22 -4 16 6 -6 8 -4 11 6 7 122
-50 188 -82 184 -89 -3 -4 8 -15 24 -24 36 -18 45 -19 35 -3 -4 7 -3 8 5 4 6
-4 9 -12 6 -17 -4 -5 0 -9 9 -9 8 0 16 4 18 10 6 19 215 -114 333 -211 157
-130 409 -415 479 -542 16 -29 34 -59 41 -67 7 -8 31 -52 55 -97 23 -46 46
-83 51 -83 5 0 9 2 9 5 0 11 -33 70 -61 112 -16 23 -29 46 -29 52 0 6 -36 60
-80 120 -44 61 -80 115 -80 120 0 18 -219 258 -286 313 -84 69 -122 108 -105
108 11 0 11 3 1 15 -20 24 -6 28 15 5 12 -13 14 -20 5 -20 -10 0 -10 -3 0 -15
9 -11 16 -12 20 -5 4 6 20 -3 41 -23 19 -18 51 -44 71 -57 33 -22 43 -37 40
-62 -1 -3 6 -12 15 -20 12 -9 15 -9 9 0 -4 6 -4 12 1 12 17 -1 123 -122 248
-284 17 -21 38 -48 49 -60 18 -21 18 -21 2 4 -9 14 -23 38 -32 55 -15 26 -42
61 -152 196 -13 16 -21 29 -17 29 3 0 1 9 -5 20 -6 10 -16 17 -23 14 -15 -5
-147 131 -147 152 0 7 -9 18 -20 24 -11 6 -20 17 -20 25 0 28 -266 223 -390
286 -25 12 -68 37 -97 56 -28 18 -59 33 -67 33 -15 0 -69 21 -171 65 -61 26
-142 55 -212 76 -40 11 -73 23 -73 25 0 6 10 5 70 -11z m-1659 -254 c-10 -17
-96 -70 -204 -124 -20 -11 -45 -29 -55 -41 -9 -11 -51 -47 -92 -78 -42 -32
-89 -71 -105 -88 -16 -16 -36 -30 -45 -30 -19 0 -123 -103 -114 -113 4 -3 -7
-22 -25 -42 -17 -20 -31 -40 -31 -45 0 -6 -5 -10 -11 -10 -5 0 -7 6 -3 13 5 8
2 8 -9 -2 -9 -7 -17 -21 -17 -31 0 -9 -9 -25 -20 -35 -20 -18 -21 -18 -14 1 8
25 -36 -27 -68 -79 -13 -21 -36 -54 -51 -74 -15 -20 -25 -43 -23 -50 3 -7 0
-12 -6 -10 -7 1 -32 -27 -56 -63 -65 -96 -79 -94 -23 4 162 279 369 511 639
714 53 39 105 72 114 72 20 0 111 52 146 83 12 11 22 17 22 12 0 -5 9 1 20 13
26 28 45 29 31 3z m174 -140 c-6 -6 -59 -35 -120 -66 -140 -73 -201 -111 -239
-153 -17 -18 -38 -34 -47 -35 -15 -3 -41 -26 -171 -149 -28 -28 -38 -45 -16
-32 7 5 8 3 4 -5 -5 -7 -14 -10 -21 -7 -7 2 -21 -4 -30 -14 -10 -11 -22 -17
-27 -14 -11 7 -38 -14 -38 -29 0 -5 10 -2 23 9 l22 19 -19 -22 c-10 -13 -23
-20 -29 -16 -6 3 -7 1 -3 -5 4 -6 -1 -20 -11 -31 -13 -15 -19 -17 -25 -8 -12
19 -9 30 8 23 10 -4 13 -2 8 6 -4 6 -3 8 2 5 5 -3 10 3 10 13 0 18 -2 18 -23
-2 -13 -12 -21 -28 -19 -34 5 -14 -17 -37 -26 -28 -8 7 -49 -52 -52 -74 -2 -9
-8 -17 -14 -17 -11 0 -52 -66 -52 -82 0 -5 -5 -8 -10 -8 -6 0 -22 -19 -35 -43
-13 -23 -19 -40 -12 -36 7 3 1 -4 -13 -16 -14 -12 -18 -18 -10 -14 8 4 5 -3
-8 -15 -21 -21 -131 -236 -147 -289 -3 -12 -10 -20 -15 -17 -4 3 -6 -3 -3 -14
3 -11 -4 -27 -17 -39 -14 -13 -20 -27 -16 -38 3 -9 -4 -48 -16 -88 -12 -39
-23 -75 -23 -81 0 -5 -4 -16 -9 -23 -9 -15 -45 -235 -55 -334 -3 -36 -10 -70
-14 -74 -8 -8 -1 141 9 186 3 14 14 77 25 140 10 63 25 138 33 167 8 28 12 54
9 56 -5 6 21 91 50 165 14 36 23 48 30 40 5 -8 6 -5 2 10 -14 50 200 437 309
557 l36 40 -21 -40 c-12 -22 -34 -56 -49 -75 -43 -56 -46 -68 -6 -26 20 21 36
40 36 43 0 6 98 120 129 149 13 13 27 21 32 18 5 -3 14 -2 20 2 8 4 7 9 -2 14
-10 7 -10 11 1 25 7 8 18 14 24 12 6 -2 52 30 101 72 147 125 269 204 436 286
90 44 123 55 104 36z m-431 -104 c-242 -198 -435 -401 -554 -583 -28 -43 -58
-87 -67 -96 -8 -9 -53 -93 -99 -185 -76 -152 -111 -201 -56 -79 12 27 22 50
22 52 0 12 97 204 126 251 90 143 145 223 194 283 118 145 403 395 437 383 6
-2 14 1 18 7 4 6 10 9 13 5 3 -3 -12 -20 -34 -38z m3565 -275 c21 -32 54 -85
71 -118 17 -32 37 -63 44 -69 7 -5 25 -32 41 -60 19 -32 23 -45 12 -36 -28 22
-19 4 14 -30 17 -18 28 -37 25 -46 -3 -8 -2 -12 3 -9 5 3 12 -1 15 -10 3 -8 2
-12 -4 -9 -6 3 -7 -1 -4 -9 3 -9 10 -13 15 -10 5 3 6 -3 2 -12 -5 -13 -3 -15
7 -9 9 6 11 4 5 -5 -5 -8 -2 -17 7 -24 14 -11 100 -216 112 -268 11 -48 -3
-30 -19 25 -13 45 -35 92 -35 77 0 -3 13 -45 29 -95 15 -49 38 -126 50 -170
12 -44 27 -98 33 -120 6 -22 14 -63 18 -92 5 -42 3 -50 -7 -41 -16 13 -16 6
-2 -26 7 -14 8 -33 4 -43 -6 -14 -10 -9 -16 22 -4 22 -6 54 -3 70 3 18 2 25
-3 18 -6 -8 -9 6 -8 35 0 26 -6 57 -13 69 -8 12 -11 31 -7 42 3 11 2 28 -4 38
-8 15 -62 198 -76 255 -2 9 -13 34 -24 55 -11 21 -25 58 -32 82 -7 24 -21 54
-31 66 -10 13 -18 28 -18 34 0 6 -20 51 -44 100 -24 49 -47 100 -51 113 -4 13
-16 32 -26 43 -10 11 -34 52 -54 90 -20 39 -46 85 -57 103 -33 54 -11 36 31
-26z m156 -551 c34 -67 91 -235 124 -366 40 -161 90 -560 72 -578 -4 -4 -11
36 -14 90 -13 234 -117 695 -186 832 -12 22 -21 43 -21 46 0 13 11 3 25 -24z
m-4399 -291 c-74 -209 -110 -439 -116 -745 -2 -79 -5 -108 -10 -85 -17 87 14
531 41 582 5 9 9 28 9 41 0 41 96 324 106 314 3 -3 -10 -51 -30 -107z m1170
-3104 c32 -13 57 -27 54 -30 -3 -3 4 -12 15 -20 15 -12 16 -15 5 -16 -13 0
-13 -2 0 -9 8 -6 17 -8 21 -5 4 2 12 -3 19 -11 7 -8 22 -16 34 -16 17 -1 18
-2 3 -6 -14 -4 -16 -8 -6 -19 6 -8 20 -14 30 -14 10 0 20 -4 24 -10 3 -5 -16
-2 -42 6 -26 9 -64 19 -83 24 -69 16 -110 31 -110 39 0 5 -13 11 -30 15 -16 3
-30 10 -30 16 0 13 16 13 43 -1 20 -9 20 -9 5 4 -33 26 -22 39 30 33 26 -3 40
-3 32 0 -8 3 -22 8 -30 11 -16 6 -27 9 -47 11 -14 2 -18 22 -5 22 5 0 35 -11
68 -24z"/>
<path d="M4735 5628 c44 -24 96 -55 115 -69 19 -14 64 -43 100 -64 107 -63
286 -215 394 -334 70 -77 109 -109 67 -55 -54 69 -191 201 -314 302 -120 99
-218 164 -347 227 -84 42 -95 36 -15 -7z"/>
<path d="M3475 5639 c-86 -10 -300 -73 -311 -91 -5 -8 -1 -9 12 -4 44 18 83
27 159 35 44 5 137 17 207 27 112 15 144 16 255 5 71 -6 153 -14 183 -16 30
-3 87 -7 125 -11 39 -4 67 -4 64 0 -9 9 -197 45 -266 50 -152 11 -356 14 -428
5z"/>
<path d="M3335 5550 c-27 -4 -70 -13 -94 -18 -25 -6 -48 -9 -53 -6 -4 3 -24 1
-44 -5 -30 -8 -35 -7 -30 5 6 17 -17 13 -104 -18 -30 -11 -63 -22 -72 -25 -20
-6 -25 -23 -7 -23 6 0 20 5 31 11 11 6 34 15 50 20 24 6 29 5 24 -6 -3 -9 0
-12 10 -8 7 3 14 0 14 -6 0 -19 38 -12 147 24 57 19 131 39 165 44 33 6 63 13
66 16 7 7 -41 4 -103 -5z"/>
<path d="M2665 5307 c-53 -29 -141 -92 -182 -131 -18 -16 -33 -26 -33 -20 0 5
30 37 67 72 66 60 72 84 11 41 -39 -28 -48 -17 -13 15 36 33 19 34 -19 1 -16
-14 -26 -25 -21 -25 16 0 -17 -28 -41 -34 -60 -15 -180 -124 -283 -256 -27
-36 -54 -65 -58 -66 -19 -2 -43 -17 -43 -27 0 -5 9 -2 20 8 21 19 28 7 8 -13
-8 -8 -9 -12 -1 -12 6 0 23 14 36 30 28 33 44 40 29 13 -7 -11 -5 -21 4 -31
12 -12 9 -21 -23 -67 -25 -35 -40 -49 -45 -42 -4 7 -8 8 -8 2 0 -5 -10 -21
-21 -35 -17 -21 -16 -16 5 27 25 50 46 75 46 54 0 -5 -4 -13 -10 -16 -5 -3
-10 -12 -10 -18 1 -22 45 47 45 70 1 13 0 23 -2 23 -1 0 -20 -24 -42 -52 -48
-65 -95 -148 -87 -156 3 -3 6 1 6 9 0 12 2 12 9 0 7 -11 11 -9 20 8 7 12 16
19 21 16 5 -3 21 13 37 36 15 22 47 64 71 93 44 55 56 82 23 52 -16 -15 -19
-15 -24 -2 -4 9 3 26 16 39 12 12 40 43 62 67 41 46 95 87 95 72 0 -4 -18 -26
-41 -47 -22 -22 -45 -49 -51 -60 -6 -11 12 1 39 28 27 26 52 44 56 40 5 -4 10
3 14 16 4 17 11 22 29 18 17 -3 34 7 66 40 24 24 35 41 26 37 -33 -12 -17 11
40 58 55 46 79 56 51 21 -12 -14 -10 -14 14 2 19 12 24 20 16 26 -11 7 4 19
104 80 44 26 21 23 -28 -4z"/>
<path d="M5449 5043 c5 -10 35 -52 65 -93 30 -41 76 -111 101 -155 25 -44 50
-87 55 -95 11 -19 37 -79 87 -200 67 -159 81 -202 102 -295 45 -193 49 -209
50 -186 2 41 -49 251 -90 371 -67 197 -184 421 -302 578 -66 87 -90 114 -68
75z"/>
<path d="M5714 3890 c3 -35 9 -115 13 -177 3 -62 10 -113 14 -113 4 0 8 -17 8
-37 0 -21 0 -51 0 -68 1 -29 -2 -51 -35 -265 -17 -113 -87 -364 -130 -470 -14
-36 -37 -94 -50 -130 -28 -75 -86 -176 -154 -270 -55 -77 -67 -95 -53 -87 19
12 141 198 204 312 23 42 98 219 123 289 3 10 9 16 12 14 17 -18 -168 -438
-192 -438 -7 0 -15 -7 -18 -16 -9 -22 -8 -26 6 -18 13 8 9 2 -34 -62 -31 -46
-36 -63 -13 -44 8 7 15 8 15 3 0 -5 -9 -16 -20 -26 -25 -21 -26 -38 -2 -30 14
5 13 3 -3 -10 -11 -9 -16 -17 -12 -17 15 0 -36 -64 -132 -162 -89 -93 -108
-124 -45 -76 97 75 247 242 273 306 7 18 17 32 22 32 14 0 69 91 69 112 0 10
7 21 15 24 8 4 15 14 15 24 0 9 11 29 24 43 14 15 27 36 31 47 4 12 9 19 12
17 10 -11 -84 -187 -146 -272 -186 -253 -211 -282 -326 -375 -78 -64 -174
-126 -186 -123 -4 1 -15 -7 -25 -18 -17 -19 -17 -20 1 -13 11 4 45 25 77 46
59 39 74 46 62 27 -9 -16 23 3 69 39 20 17 33 32 27 34 -5 1 30 37 78 78 84
72 86 73 39 21 -74 -83 -49 -71 38 18 101 104 155 178 249 337 80 136 181 367
172 391 -3 8 -1 11 4 8 6 -4 10 6 10 23 0 17 9 58 19 93 11 35 22 79 26 97 4
18 10 30 13 28 4 -2 7 8 8 22 0 15 11 97 24 182 19 130 23 197 24 410 1 190
-2 260 -12 275 -11 18 -12 18 -6 -7 16 -71 7 -431 -10 -425 -7 3 -10 34 -8 86
3 53 0 81 -7 81 -6 0 -11 -20 -11 -48 0 -140 -61 -538 -86 -561 -7 -7 -2 41
21 179 8 52 17 136 19 185 2 50 2 74 0 55 -17 -145 -47 -327 -56 -335 -8 -7
-9 0 -4 25 21 110 27 183 16 190 -9 6 -9 13 -1 28 17 31 13 51 -5 27 -13 -18
-14 -12 -8 64 5 63 4 82 -4 77 -9 -5 -12 9 -11 51 0 32 -9 123 -21 203 -22
150 -38 203 -26 90z"/>
<path d="M6059 3593 c-1 -65 -1 -121 0 -126 4 -25 -25 -227 -55 -373 -72 -363
-248 -748 -457 -1001 -80 -96 -242 -263 -255 -263 -7 0 -12 -7 -12 -15 0 -24
103 61 209 171 129 134 294 389 365 564 15 36 31 74 36 85 51 115 129 406 161
610 23 140 34 451 17 462 -5 2 -9 -49 -9 -114z"/>
<path d="M5990 3529 c0 -74 -33 -308 -61 -439 -88 -403 -273 -779 -509 -1034
-35 -39 -38 -44 -12 -23 35 28 58 36 46 15 -4 -7 2 -4 14 6 12 11 21 25 20 32
-2 7 22 43 53 81 124 152 269 427 332 633 58 189 84 297 98 398 33 239 42 379
27 388 -4 3 -8 -23 -8 -57z"/>
<path d="M5531 2885 c-18 -55 -57 -149 -87 -210 -87 -178 -137 -253 -284 -427
-50 -60 -23 -44 45 26 84 86 191 249 244 371 24 55 54 123 66 150 33 74 57
152 53 172 -2 10 -19 -27 -37 -82z"/>
<path d="M5600 2903 c-12 -37 -42 -107 -66 -154 -24 -48 -53 -112 -64 -143
-12 -31 -25 -56 -30 -56 -13 0 -183 -260 -175 -268 14 -15 131 147 207 288 61
112 167 384 155 396 -3 3 -15 -25 -27 -63z"/>
<path d="M5895 2503 c-35 -83 -216 -369 -271 -428 -13 -14 -24 -29 -24 -33 -1
-11 -69 -82 -79 -82 -11 0 -36 -30 -36 -44 0 -20 -168 -170 -253 -225 -45 -30
-82 -56 -82 -58 0 -2 22 7 48 22 68 37 183 127 303 238 59 54 102 89 85 69
-29 -33 -5 -27 27 8 16 17 35 30 43 30 13 0 19 13 15 33 -1 5 3 6 8 2 6 -3 15
5 22 17 11 20 10 22 -3 10 -9 -7 15 34 52 90 68 103 164 277 157 284 -2 2 -25
-37 -51 -86 -26 -50 -50 -90 -53 -90 -11 0 8 52 32 88 27 41 108 232 102 238
-2 3 -21 -35 -42 -83z"/>
<path d="M5519 5846 c9 -11 6 -12 -16 -8 -26 4 -25 2 17 -33 74 -62 333 -326
378 -385 117 -153 288 -427 339 -545 47 -108 70 -148 75 -133 4 8 -1 30 -9 49
-81 186 -191 376 -316 542 -49 65 -87 120 -85 123 3 2 31 -30 63 -71 31 -41
59 -75 62 -75 15 0 -193 254 -258 315 -49 46 -48 45 15 -27 37 -43 65 -78 60
-78 -10 0 -184 178 -185 190 -1 6 -2 14 -3 19 0 5 -5 13 -10 18 -5 5 -6 3 -2
-4 12 -21 -10 -15 -30 9 -19 21 -19 21 1 15 11 -4 -5 15 -35 43 -51 46 -87 68
-61 36z"/>
<path d="M6500 4512 c0 -4 11 -46 24 -92 33 -115 53 -205 71 -327 14 -99 20
-212 10 -201 -5 4 -36 237 -39 288 -1 14 -4 30 -8 35 -3 6 -11 37 -18 70 -16
83 -41 167 -47 161 -3 -2 2 -28 10 -58 29 -102 49 -219 43 -261 -4 -31 -3 -36
3 -17 5 14 9 21 10 15 1 -5 8 -63 16 -130 8 -66 16 -140 17 -165 2 -30 7 -44
16 -42 17 3 15 -26 -4 -45 -11 -12 -14 -27 -10 -52 3 -20 7 -54 8 -76 1 -22 5
-4 8 40 6 70 7 61 8 -65 2 -164 -12 -361 -27 -387 -9 -15 -11 -13 -12 12 0 17
-13 -28 -29 -100 -74 -351 -157 -611 -269 -854 -39 -85 -70 -156 -67 -158 6
-6 156 301 156 319 0 9 9 26 20 39 l20 24 -19 -50 c-10 -27 -21 -57 -25 -66
-4 -10 -2 -16 8 -16 8 0 12 6 8 15 -3 10 -1 13 6 8 8 -4 10 -2 6 8 -3 8 2 27
11 43 15 27 16 27 10 3 -4 -22 -3 -21 10 5 8 17 13 39 10 50 -2 11 0 27 6 35
8 11 9 9 3 -10 -3 -14 -3 -22 1 -18 4 4 9 26 10 49 1 22 12 53 23 69 13 17 19
36 16 51 -4 16 -3 20 3 11 7 -9 13 -3 20 23 8 24 8 33 0 28 -7 -4 -8 2 -3 18
22 79 87 387 96 459 41 298 37 676 -9 935 -29 164 -69 342 -81 365 -11 21 -20
26 -20 12z"/>
</g>
</svg>
